<?xml version="1.0" encoding="UTF-8"?>
<svg id="Layer_1" xmlns="http://www.w3.org/2000/svg" version="1.1" viewBox="0 0 2848 1504">
  <!-- Generator: Adobe Illustrator 29.8.4, SVG Export Plug-In . SVG Version: 2.1.1 Build 6)  -->
  <defs>
    <style>
      .st0 {
        fill: #ed2224;
      }

      .st1 {
        fill: #fff;
      }
    </style>
  </defs>
  <rect width="2848" height="1504"/>
  <g>
    <g>
      <path class="st0" d="M3444.4,990.5c-22.4,0-40.3-4.5-53.7-13.4-13.4-8.9-22.4-20.9-26.8-34.3-4.5-13.4-7.5-28.3-7.5-44.7v-407.1c0-43.2,10.4-77.5,32.8-98.4,22.4-22.4,55.2-32.8,101.4-32.8s55.2,3,71.6,10.4c17.9,7.5,31.3,19.4,41.8,34.3,10.4,16.4,17.9,35.8,25.4,61.1l4.5,17.9c10.4,32.8,17.9,59.7,23.9,83.5,6,23.9,10.4,44.7,14.9,65.6,4.5,19.4,7.5,38.8,8.9,58.2,3,19.4,4.5,38.8,6,61.1,1.5-22.4,4.5-43.2,6-61.1,1.5-17.9,6-38.8,8.9-58.2,4.5-19.4,8.9-41.8,14.9-65.6,6-23.9,14.9-52.2,23.9-83.5l4.5-17.9c7.5-25.4,16.4-44.7,26.8-61.1,10.4-16.4,23.9-26.8,41.8-34.3,17.9-7.5,41.8-10.4,71.6-10.4,46.2,0,80.5,10.4,101.4,32.8,20.9,22.4,32.8,55.2,32.8,98.4v405.6c0,14.9-3,29.8-7.5,44.7s-13.4,25.4-26.8,34.3c-13.4,8.9-31.3,13.4-53.7,13.4s-40.3-4.5-53.7-13.4c-13.4-8.9-22.4-20.9-26.8-34.3-4.5-13.4-7.5-28.3-7.5-44.7v-73.1c0-40.3,3-85,6-134.2,3-49.2,6-107.4,7.5-171.5l-77.5,289.3c-6,19.4-11.9,35.8-19.4,47.7-6,11.9-14.9,20.9-26.8,26.8-10.4,6-26.8,8.9-47.7,8.9s-37.3-3-47.7-8.9c-11.9-6-20.9-14.9-26.8-26.8-6-11.9-13.4-28.3-19.4-47.7l-77.5-289.3c1.5,64.1,4.5,122.3,7.5,171.5,3,49.2,4.5,95.4,6,134.2v73.1c0,14.9-1.5,29.8-6,44.7-4.5,14.9-13.4,25.4-26.8,34.3-13.4,8.9-31.3,13.4-53.7,13.4h0s3,1.5,3,1.5Z"/>
      <path class="st1" d="M4163.2,990.5c-13.4,0-26.8-3-41.8-10.4-14.9-7.5-25.4-17.9-35.8-31.3-8.9-13.4-14.9-29.8-14.9-50.7s0-19.4,3-31.3c1.5-11.9,6-23.9,11.9-35.8l143.2-341.5c8.9-22.4,17.9-43.2,25.4-59.7,7.5-16.4,16.4-29.8,25.4-41.8,8.9-10.4,20.9-19.4,35.8-23.9,14.9-6,32.8-7.5,56.7-7.5s41.8,3,56.7,7.5c14.9,6,26.8,13.4,35.8,23.9,8.9,10.4,17.9,25.4,25.4,41.8,7.5,16.4,16.4,35.8,25.4,59.7l143.2,341.5c6,11.9,8.9,23.9,11.9,35.8,1.5,11.9,3,22.4,3,31.3,0,19.4-4.5,37.3-14.9,50.7-8.9,13.4-20.9,23.9-34.3,31.3-13.4,7.5-28.3,10.4-41.8,10.4-23.9,0-41.8-4.5-55.2-14.9-13.4-10.4-23.9-23.9-31.3-40.3-7.5-16.4-14.9-34.3-20.9-52.2l-19.4-62.6v-49.2c1.5,0-56.7-150.6-56.7-150.6-4.5-11.9-8.9-26.8-14.9-44.7-6-17.9-8.9-34.3-13.4-47.7-3,13.4-7.5,28.3-13.4,47.7-6,17.9-10.4,32.8-14.9,44.7l-58.2,150.6v49.2c1.5,0-17.9,62.6-17.9,62.6-6,17.9-11.9,35.8-19.4,52.2-7.5,16.4-17.9,29.8-31.3,40.3-13.4,10.4-31.3,14.9-55.2,14.9h3ZM4239.2,848.9v-113.3h264v113.3h-264Z"/>
      <path class="st1" d="M4814.9,990.5c-16.4,0-32.8-4.5-47.7-11.9-14.9-7.5-28.3-19.4-37.3-34.3-10.4-14.9-14.9-32.8-14.9-55.2s7.5-52.2,23.9-70.1c14.9-17.9,35.8-37.3,61.1-58.2,17.9-13.4,35.8-25.4,52.2-38.8,17.9-13.4,34.3-26.8,52.2-40.3-11.9-10.4-28.3-23.9-47.7-40.3-19.4-16.4-38.8-32.8-58.2-49.2-25.4-20.9-46.2-41.8-61.1-61.1-14.9-19.4-22.4-43.2-22.4-74.6s6-38.8,14.9-55.2c10.4-14.9,22.4-26.8,37.3-34.3,14.9-7.5,31.3-11.9,47.7-11.9s37.3,4.5,50.7,11.9c13.4,8.9,25.4,19.4,35.8,32.8,10.4,13.4,20.9,29.8,29.8,47.7,14.9,28.3,26.8,55.2,37.3,79,10.4,23.9,19.4,41.8,23.9,55.2,4.5-13.4,13.4-31.3,23.9-55.2,10.4-23.9,23.9-50.7,37.3-79,8.9-17.9,19.4-34.3,29.8-47.7,10.4-13.4,22.4-25.4,35.8-32.8,16.4-7.5,32.8-11.9,52.2-11.9s32.8,4.5,49.2,11.9c14.9,7.5,28.3,19.4,37.3,35.8,10.4,14.9,14.9,32.8,14.9,55.2s-7.5,55.2-22.4,74.6c-14.9,19.4-35.8,40.3-61.1,61.1-17.9,14.9-34.3,29.8-52.2,44.7-17.9,14.9-34.3,29.8-52.2,43.2,11.9,8.9,28.3,20.9,46.2,34.3,17.9,14.9,37.3,29.8,55.2,44.7,25.4,20.9,46.2,40.3,61.1,58.2,14.9,17.9,23.9,41.8,23.9,70.1s-4.5,38.8-14.9,55.2c-10.4,14.9-22.4,26.8-37.3,34.3-14.9,7.5-31.3,11.9-49.2,11.9s-37.3-4.5-50.7-13.4c-13.4-7.5-25.4-19.4-35.8-32.8-10.4-14.9-20.9-29.8-29.8-47.7-13.4-25.4-25.4-49.2-35.8-70.1-11.9-20.9-19.4-40.3-25.4-55.2-4.5,14.9-13.4,34.3-25.4,55.2-11.9,22.4-23.9,44.7-35.8,68.6-14.9,26.8-29.8,49.2-46.2,67.1-16.4,17.9-40.3,26.8-70.1,26.8h0v1.5h0Z"/>
    </g>
    <g>
      <rect class="st1" x="5387.9" y="357.5" width="3207" height="630.8"/>
      <g>
        <path d="M5818.5,746.6c0,111.7-73.3,182.9-173.8,182.9s-172.4-71.2-172.4-173.1v-38.4h114.5v38.4c0,34.2,16.1,60,57.9,60s58.6-21.6,58.6-64.2v-323.9h115.2v318.4Z"/>
        <path d="M6098.4,416.3c127.8,0,186.4,85.9,186.4,256.9s-57.2,256.2-185,256.2-188.5-86.6-188.5-256.9,62.1-256.2,187.1-256.2ZM6098.4,816.4c57.9,0,70.5-45.4,70.5-143.8-.7-99.8-11.2-140.3-69.1-143.1-55.9,0-72.6,44-72.6,143.8s15.4,143.1,71.2,143.1Z"/>
        <path d="M6711.4,428.2v323.9c0,117.3-77.5,177.3-173.1,177.3s-173.1-60-173.1-177.3v-323.9h115.2v319.8c0,48.2,23.7,70.5,57.9,70.5s58.6-22.3,58.6-70.5v-319.8h114.5Z"/>
        <path d="M7043,916.9l-83.1-182.9h-40.5v182.9h-114.5v-488.7h180.8c107.5,0,162,73.3,162,147.3s-29.3,102.6-77.5,127.8l103.3,213.6h-130.6ZM6983,537.1h-63.5v88.7h55.9c37,0,57.9-20.2,57.9-46.1s-16.1-42.6-50.3-42.6Z"/>
        <path d="M7591.1,916.9h-114.5l-118.7-274.4v274.4h-113.1v-488.7h118l114.5,271.6v-271.6h113.8v488.7Z"/>
        <path d="M7684.6,916.9v-488.7h346.3v108.9h-231.8v77.5h207.4v110.3h-207.4v82.4h244.4v109.6h-358.8Z"/>
        <path d="M8354.8,731.9v185h-114.5v-185l-155.7-303.7h132l82.4,192,81-192h130.6l-155.7,303.7Z"/>
      </g>
    </g>
  </g>
  <g>
    <g>
      <path class="st0" d="M196.1,906.1c-10.9,0-19.5-2.2-26-6.5-6.5-4.3-10.9-10.1-13-16.6s-3.6-13.7-3.6-21.7v-197.5c0-21,5.1-37.6,15.9-47.7,10.9-10.9,26.8-15.9,49.2-15.9s26.8,1.4,34.7,5.1c8.7,3.6,15.2,9.4,20.3,16.6,5.1,8,8.7,17.4,12.3,29.7l2.2,8.7c5.1,15.9,8.7,28.9,11.6,40.5,2.9,11.6,5.1,21.7,7.2,31.8,2.2,9.4,3.6,18.8,4.3,28.2,1.4,9.4,2.2,18.8,2.9,29.7.7-10.9,2.2-21,2.9-29.7s2.9-18.8,4.3-28.2c2.2-9.4,4.3-20.3,7.2-31.8,2.9-11.6,7.2-25.3,11.6-40.5l2.2-8.7c3.6-12.3,8-21.7,13-29.7,5.1-8,11.6-13,20.3-16.6,8.7-3.6,20.3-5.1,34.7-5.1,22.4,0,39.1,5.1,49.2,15.9,10.1,10.9,15.9,26.8,15.9,47.7v196.8c0,7.2-1.4,14.5-3.6,21.7-2.2,7.2-6.5,12.3-13,16.6-6.5,4.3-15.2,6.5-26,6.5s-19.5-2.2-26-6.5c-6.5-4.3-10.9-10.1-13-16.6-2.2-6.5-3.6-13.7-3.6-21.7v-35.4c0-19.5,1.4-41.2,2.9-65.1,1.4-23.9,2.9-52.1,3.6-83.2l-37.6,140.3c-2.9,9.4-5.8,17.4-9.4,23.1-2.9,5.8-7.2,10.1-13,13-5.1,2.9-13,4.3-23.1,4.3s-18.1-1.4-23.1-4.3c-5.8-2.9-10.1-7.2-13-13-2.9-5.8-6.5-13.7-9.4-23.1l-37.6-140.3c.7,31.1,2.2,59.3,3.6,83.2,1.4,23.9,2.2,46.3,2.9,65.1v35.4c0,7.2-.7,14.5-2.9,21.7s-6.5,12.3-13,16.6c-6.5,4.3-15.2,6.5-26,6.5h0s1.4.7,1.4.7Z"/>
      <path class="st1" d="M544.8,906.1c-6.5,0-13-1.4-20.3-5.1-7.2-3.6-12.3-8.7-17.4-15.2-4.3-6.5-7.2-14.5-7.2-24.6s0-9.4,1.4-15.2c.7-5.8,2.9-11.6,5.8-17.4l69.4-165.7c4.3-10.9,8.7-21,12.3-28.9,3.6-8,8-14.5,12.3-20.3,4.3-5.1,10.1-9.4,17.4-11.6,7.2-2.9,15.9-3.6,27.5-3.6s20.3,1.4,27.5,3.6c7.2,2.9,13,6.5,17.4,11.6s8.7,12.3,12.3,20.3c3.6,8,8,17.4,12.3,28.9l69.4,165.7c2.9,5.8,4.3,11.6,5.8,17.4.7,5.8,1.4,10.9,1.4,15.2,0,9.4-2.2,18.1-7.2,24.6-4.3,6.5-10.1,11.6-16.6,15.2-6.5,3.6-13.7,5.1-20.3,5.1-11.6,0-20.3-2.2-26.8-7.2-6.5-5.1-11.6-11.6-15.2-19.5-3.6-8-7.2-16.6-10.1-25.3l-9.4-30.4v-23.9c.7,0-27.5-73.1-27.5-73.1-2.2-5.8-4.3-13-7.2-21.7-2.9-8.7-4.3-16.6-6.5-23.1-1.4,6.5-3.6,13.7-6.5,23.1-2.9,8.7-5.1,15.9-7.2,21.7l-28.2,73.1v23.9c.7,0-8.7,30.4-8.7,30.4-2.9,8.7-5.8,17.4-9.4,25.3s-8.7,14.5-15.2,19.5c-6.5,5.1-15.2,7.2-26.8,7.2h1.4ZM581.7,837.4v-55h128v55h-128Z"/>
      <path class="st1" d="M860.9,906.1c-8,0-15.9-2.2-23.1-5.8s-13.7-9.4-18.1-16.6c-5.1-7.2-7.2-15.9-7.2-26.8s3.6-25.3,11.6-34c7.2-8.7,17.4-18.1,29.7-28.2,8.7-6.5,17.4-12.3,25.3-18.8,8.7-6.5,16.6-13,25.3-19.5-5.8-5.1-13.7-11.6-23.1-19.5-9.4-8-18.8-15.9-28.2-23.9-12.3-10.1-22.4-20.3-29.7-29.7-7.2-9.4-10.9-21-10.9-36.2s2.9-18.8,7.2-26.8c5.1-7.2,10.9-13,18.1-16.6,7.2-3.6,15.2-5.8,23.1-5.8s18.1,2.2,24.6,5.8c6.5,4.3,12.3,9.4,17.4,15.9,5.1,6.5,10.1,14.5,14.5,23.1,7.2,13.7,13,26.8,18.1,38.3s9.4,20.3,11.6,26.8c2.2-6.5,6.5-15.2,11.6-26.8,5.1-11.6,11.6-24.6,18.1-38.3,4.3-8.7,9.4-16.6,14.5-23.1,5.1-6.5,10.9-12.3,17.4-15.9,8-3.6,15.9-5.8,25.3-5.8s15.9,2.2,23.9,5.8c7.2,3.6,13.7,9.4,18.1,17.4,5.1,7.2,7.2,15.9,7.2,26.8s-3.6,26.8-10.9,36.2-17.4,19.5-29.7,29.7c-8.7,7.2-16.6,14.5-25.3,21.7-8.7,7.2-16.6,14.5-25.3,21,5.8,4.3,13.7,10.1,22.4,16.6,8.7,7.2,18.1,14.5,26.8,21.7,12.3,10.1,22.4,19.5,29.7,28.2,7.2,8.7,11.6,20.3,11.6,34s-2.2,18.8-7.2,26.8c-5.1,7.2-10.9,13-18.1,16.6-7.2,3.6-15.2,5.8-23.9,5.8s-18.1-2.2-24.6-6.5c-6.5-3.6-12.3-9.4-17.4-15.9-5.1-7.2-10.1-14.5-14.5-23.1-6.5-12.3-12.3-23.9-17.4-34-5.8-10.1-9.4-19.5-12.3-26.8-2.2,7.2-6.5,16.6-12.3,26.8-5.8,10.9-11.6,21.7-17.4,33.3-7.2,13-14.5,23.9-22.4,32.6s-19.5,13-34,13h0v.7h0Z"/>
    </g>
    <g>
      <rect class="st1" x="1138.9" y="599" width="1555.7" height="306"/>
      <g>
        <path d="M1347.8,787.7c0,54.2-35.6,88.7-84.3,88.7s-83.7-34.5-83.7-84v-18.6h55.5v18.6c0,16.6,7.8,29.1,28.1,29.1s28.4-10.5,28.4-31.2v-157.1h55.9v154.4Z"/>
        <path d="M1483.6,627.5c62,0,90.4,41.7,90.4,124.6s-27.8,124.3-89.7,124.3-91.4-42-91.4-124.6,30.1-124.3,90.8-124.3ZM1483.6,821.6c28.1,0,34.2-22,34.2-69.8-.3-48.4-5.4-68.1-33.5-69.4-27.1,0-35.2,21.3-35.2,69.8s7.5,69.4,34.5,69.4Z"/>
        <path d="M1780.9,633.3v157.1c0,56.9-37.6,86-84,86s-84-29.1-84-86v-157.1h55.9v155.1c0,23.4,11.5,34.2,28.1,34.2s28.4-10.8,28.4-34.2v-155.1h55.5Z"/>
        <path d="M1941.8,870.4l-40.3-88.7h-19.6v88.7h-55.5v-237.1h87.7c52.2,0,78.6,35.6,78.6,71.5s-14.2,49.8-37.6,62l50.1,103.6h-63.3ZM1912.7,686.1h-30.8v43h27.1c17.9,0,28.1-9.8,28.1-22.4s-7.8-20.7-24.4-20.7Z"/>
        <path d="M2207.6,870.4h-55.5l-57.6-133.1v133.1h-54.9v-237.1h57.2l55.5,131.7v-131.7h55.2v237.1Z"/>
        <path d="M2253,870.4v-237.1h168v52.8h-112.4v37.6h100.6v53.5h-100.6v40h118.5v53.2h-174.1Z"/>
        <path d="M2578.1,780.6v89.7h-55.5v-89.7l-75.5-147.3h64l40,93.1,39.3-93.1h63.3l-75.5,147.3Z"/>
      </g>
    </g>
  </g>
</svg>