<?xml version="1.0" encoding="UTF-8"?>
<svg id="Layer_1" xmlns="http://www.w3.org/2000/svg" version="1.1" viewBox="0 0 5238.5 635.3">
  <!-- Generator: Adobe Illustrator 30.1.0, SVG Export Plug-In . SVG Version: 2.1.1 Build 136)  -->
  <defs>
    <style>
      .st0 {
        fill: #ed2224;
      }

      .st1 {
        fill: #fff;
      }
    </style>
  </defs>
  <path class="st0" d="M88,635.3c-22.4,0-40.3-4.5-53.7-13.4-13.4-8.9-22.4-20.9-26.8-34.3s-7.5-28.3-7.5-44.7V135.7C0,92.5,10.4,58.2,32.8,37.3,55.2,14.9,88,4.5,134.2,4.5s55.2,3,71.6,10.4c17.9,7.5,31.3,19.4,41.8,34.3,10.4,16.4,17.9,35.8,25.4,61.1l4.5,17.9c10.4,32.8,17.9,59.7,23.9,83.5,6,23.9,10.4,44.7,14.9,65.6,4.5,19.4,7.5,38.8,8.9,58.2,3,19.4,4.5,38.8,6,61.1,1.5-22.4,4.5-43.2,6-61.1,1.5-17.9,6-38.8,8.9-58.2,4.5-19.4,8.9-41.8,14.9-65.6s14.9-52.2,23.9-83.5l4.5-17.9c7.5-25.4,16.4-44.7,26.8-61.1,10.4-16.4,23.9-26.8,41.8-34.3,17.9-7.5,41.8-10.4,71.6-10.4,46.2,0,80.5,10.4,101.4,32.8,20.9,22.4,32.8,55.2,32.8,98.4v405.6c0,14.9-3,29.8-7.5,44.7s-13.4,25.4-26.8,34.3c-13.4,8.9-31.3,13.4-53.7,13.4s-40.3-4.5-53.7-13.4c-13.4-8.9-22.4-20.9-26.8-34.3s-7.5-28.3-7.5-44.7v-73.1c0-40.3,3-85,6-134.2,3-49.2,6-107.4,7.5-171.5l-77.5,289.3c-6,19.4-11.9,35.8-19.4,47.7-6,11.9-14.9,20.9-26.8,26.8-10.4,6-26.8,8.9-47.7,8.9s-37.3-3-47.7-8.9c-11.9-6-20.9-14.9-26.8-26.8s-13.4-28.3-19.4-47.7l-77.5-289.3c1.5,64.1,4.5,122.3,7.5,171.5,3,49.2,4.5,95.4,6,134.2v73.1c0,14.9-1.5,29.8-6,44.7s-13.4,25.4-26.8,34.3c-13.4,8.9-31.3,13.4-53.7,13.4h0s3,1.5,3,1.5h0Z"/>
  <path class="st1" d="M806.8,635.3c-13.4,0-26.8-3-41.8-10.4-14.9-7.5-25.4-17.9-35.8-31.3-8.9-13.4-14.9-29.8-14.9-50.7s0-19.4,3-31.3c1.5-11.9,6-23.9,11.9-35.8l143.2-341.5c8.9-22.4,17.9-43.2,25.4-59.7,7.5-16.4,16.4-29.8,25.4-41.8,8.9-10.4,20.9-19.4,35.8-23.9,14.9-6,32.8-7.5,56.7-7.5s41.8,3,56.7,7.5c14.9,6,26.8,13.4,35.8,23.9,8.9,10.4,17.9,25.4,25.4,41.8,7.5,16.4,16.4,35.8,25.4,59.7l143.2,341.5c6,11.9,8.9,23.9,11.9,35.8,1.5,11.9,3,22.4,3,31.3,0,19.4-4.5,37.3-14.9,50.7-8.9,13.4-20.9,23.9-34.3,31.3s-28.3,10.4-41.8,10.4c-23.9,0-41.8-4.5-55.2-14.9s-23.9-23.9-31.3-40.3-14.9-34.3-20.9-52.2l-19.4-62.6v-49.2c1.5,0-56.7-150.6-56.7-150.6-4.5-11.9-8.9-26.8-14.9-44.7-6-17.9-8.9-34.3-13.4-47.7-3,13.4-7.5,28.3-13.4,47.7-6,17.9-10.4,32.8-14.9,44.7l-58.2,150.6v49.2c1.5,0-17.9,62.6-17.9,62.6-6,17.9-11.9,35.8-19.4,52.2-7.5,16.4-17.9,29.8-31.3,40.3s-31.3,14.9-55.2,14.9h3ZM882.8,493.6v-113.3h264v113.3h-264Z"/>
  <path class="st1" d="M1458.5,635.3c-16.4,0-32.8-4.5-47.7-11.9s-28.3-19.4-37.3-34.3c-10.4-14.9-14.9-32.8-14.9-55.2s7.5-52.2,23.9-70.1c14.9-17.9,35.8-37.3,61.1-58.2,17.9-13.4,35.8-25.4,52.2-38.8,17.9-13.4,34.3-26.8,52.2-40.3-11.9-10.4-28.3-23.9-47.7-40.3-19.4-16.4-38.8-32.8-58.2-49.2-25.4-20.9-46.2-41.8-61.1-61.1s-22.4-43.2-22.4-74.6,6-38.8,14.9-55.2c10.4-14.9,22.4-26.8,37.3-34.3,14.9-7.5,31.3-11.9,47.7-11.9s37.3,4.5,50.7,11.9c13.4,8.9,25.4,19.4,35.8,32.8,10.4,13.4,20.9,29.8,29.8,47.7,14.9,28.3,26.8,55.2,37.3,79,10.4,23.9,19.4,41.8,23.9,55.2,4.5-13.4,13.4-31.3,23.9-55.2,10.4-23.9,23.9-50.7,37.3-79,8.9-17.9,19.4-34.3,29.8-47.7,10.4-13.4,22.4-25.4,35.8-32.8,16.4-7.5,32.8-11.9,52.2-11.9s32.8,4.5,49.2,11.9c14.9,7.5,28.3,19.4,37.3,35.8,10.4,14.9,14.9,32.8,14.9,55.2s-7.5,55.2-22.4,74.6c-14.9,19.4-35.8,40.3-61.1,61.1-17.9,14.9-34.3,29.8-52.2,44.7-17.9,14.9-34.3,29.8-52.2,43.2,11.9,8.9,28.3,20.9,46.2,34.3,17.9,14.9,37.3,29.8,55.2,44.7,25.4,20.9,46.2,40.3,61.1,58.2,14.9,17.9,23.9,41.8,23.9,70.1s-4.5,38.8-14.9,55.2c-10.4,14.9-22.4,26.8-37.3,34.3-14.9,7.5-31.3,11.9-49.2,11.9s-37.3-4.5-50.7-13.4c-13.4-7.5-25.4-19.4-35.8-32.8-10.4-14.9-20.9-29.8-29.8-47.7-13.4-25.4-25.4-49.2-35.8-70.1-11.9-20.9-19.4-40.3-25.4-55.2-4.5,14.9-13.4,34.3-25.4,55.2-11.9,22.4-23.9,44.7-35.8,68.6-14.9,26.8-29.8,49.2-46.2,67.1-16.4,17.9-40.3,26.8-70.1,26.8h0v1.5h0Z"/>
  <rect class="st1" x="2031.5" y="2.2" width="3207" height="630.8"/>
  <path d="M2462.1,391.3c0,111.7-73.3,182.9-173.8,182.9s-172.4-71.2-172.4-173.1v-38.4h114.5v38.4c0,34.2,16.1,60,57.9,60s58.6-21.6,58.6-64.2V72.9h115.2v318.4h0Z"/>
  <path d="M2742,61.1c127.8,0,186.4,85.9,186.4,256.9s-57.2,256.2-185,256.2-188.5-86.6-188.5-256.9,62.1-256.2,187.1-256.2h0ZM2742,461.1c57.9,0,70.5-45.4,70.5-143.8-.7-99.8-11.2-140.3-69.1-143.1-55.9,0-72.6,44-72.6,143.8s15.4,143.1,71.2,143.1h0Z"/>
  <path d="M3355,72.9v323.9c0,117.3-77.5,177.3-173.1,177.3s-173.1-60-173.1-177.3V72.9h115.2v319.8c0,48.2,23.7,70.5,57.9,70.5s58.6-22.3,58.6-70.5V72.9h114.5Z"/>
  <path d="M3686.6,561.6l-83.1-182.9h-40.5v182.9h-114.5V72.9h180.8c107.5,0,162,73.3,162,147.3s-29.3,102.6-77.5,127.8l103.3,213.6h-130.6,0ZM3626.6,181.9h-63.5v88.7h55.9c37,0,57.9-20.2,57.9-46.1s-16.1-42.6-50.3-42.6Z"/>
  <path d="M4234.7,561.6h-114.5l-118.7-274.4v274.4h-113.1V72.9h118l114.5,271.6V72.9h113.8v488.7h0Z"/>
  <path d="M4328.2,561.6V72.9h346.3v108.9h-231.8v77.5h207.4v110.3h-207.4v82.4h244.4v109.6h-358.9Z"/>
  <path d="M4998.4,376.6v185h-114.5v-185l-155.7-303.7h132l82.4,192,81-192h130.6l-155.7,303.7h0Z"/>
</svg>