<?xml version="1.0" encoding="UTF-8"?><svg id="Layer_1" xmlns="http://www.w3.org/2000/svg" viewBox="0 0 5669.557 819.559"><path d="M303.534,727.423c-22.369,0-40.265-4.474-53.686-13.422-13.422-8.948-22.369-20.878-26.843-34.3-4.474-13.422-7.456-28.334-7.456-44.739V227.843c0-43.247,10.439-77.547,32.808-98.425,22.369-22.369,55.178-32.808,101.407-32.808s55.178,2.983,71.582,10.439c17.895,7.456,31.317,19.387,41.756,34.3,10.439,16.404,17.895,35.791,25.352,61.143l4.474,17.895c10.439,32.808,17.895,59.651,23.861,83.512,5.965,23.861,10.439,44.739,14.913,65.617,4.474,19.387,7.456,38.773,8.948,58.16,2.983,19.387,4.474,38.773,5.965,61.143,1.491-22.369,4.474-43.247,5.965-61.143,1.491-17.895,5.965-38.773,8.948-58.16,4.474-19.387,8.948-41.756,14.913-65.617,5.965-23.861,14.913-52.195,23.861-83.512l4.474-17.895c7.456-25.352,16.404-44.739,26.843-61.143,10.439-16.404,23.861-26.843,41.756-34.3,17.895-7.456,41.756-10.439,71.582-10.439,46.23,0,80.529,10.439,101.407,32.808,20.878,22.369,32.808,55.178,32.808,98.425v405.63c0,14.913-2.983,29.826-7.456,44.739s-13.422,25.352-26.843,34.3c-13.422,8.948-31.317,13.422-53.686,13.422s-40.265-4.474-53.686-13.422c-13.422-8.948-22.369-20.878-26.843-34.3-4.474-13.422-7.456-28.334-7.456-44.739v-73.073c0-40.265,2.983-85.003,5.965-134.216,2.983-49.212,5.965-107.373,7.456-171.498l-77.547,289.309c-5.965,19.387-11.93,35.791-19.387,47.721-5.965,11.93-14.913,20.878-26.843,26.843-10.439,5.965-26.843,8.948-47.721,8.948s-37.282-2.983-47.721-8.948c-11.93-5.965-20.878-14.913-26.843-26.843-5.965-11.93-13.422-28.334-19.387-47.721l-77.547-289.309c1.491,64.125,4.474,122.285,7.456,171.498,2.983,49.212,4.474,95.442,5.965,134.216v73.073c0,14.913-1.491,29.826-5.965,44.739-4.474,14.913-13.422,25.352-26.843,34.3-13.422,8.948-31.317,13.422-53.686,13.422h0s2.983,1.491,2.982,1.491Z" style="fill:#ed2224;"/><path d="M1022.334,727.423c-13.422,0-26.843-2.983-41.756-10.439-14.913-7.456-25.352-17.895-35.791-31.317-8.948-13.422-14.913-29.826-14.913-50.704s0-19.387,2.983-31.317c1.491-11.93,5.965-23.861,11.93-35.791l143.163-341.504c8.948-22.369,17.895-43.247,25.352-59.651,7.456-16.404,16.404-29.826,25.352-41.756,8.948-10.439,20.878-19.387,35.791-23.861,14.913-5.965,32.808-7.456,56.669-7.456s41.756,2.983,56.669,7.456c14.913,5.965,26.843,13.422,35.791,23.861,8.948,10.439,17.895,25.352,25.352,41.756,7.456,16.404,16.404,35.791,25.352,59.651l143.163,341.504c5.965,11.93,8.948,23.861,11.93,35.791,1.491,11.93,2.983,22.369,2.983,31.317,0,19.387-4.474,37.282-14.913,50.704-8.948,13.422-20.878,23.861-34.3,31.317-13.422,7.456-28.334,10.439-41.756,10.439-23.861,0-41.756-4.474-55.178-14.913-13.422-10.439-23.861-23.861-31.317-40.265-7.456-16.404-14.913-34.3-20.878-52.195l-19.387-62.634v-49.212c1.491,0-56.669-150.62-56.669-150.62-4.474-11.93-8.948-26.843-14.913-44.739-5.965-17.895-8.948-34.3-13.422-47.721-2.983,13.422-7.456,28.334-13.422,47.721-5.965,17.895-10.439,32.808-14.913,44.739l-58.16,150.62v49.212c1.491,0-17.895,62.634-17.895,62.634-5.965,17.895-11.93,35.791-19.387,52.195-7.456,16.404-17.895,29.826-31.317,40.265-13.422,10.439-31.317,14.913-55.178,14.913h2.983ZM1098.389,585.751v-113.338h263.958v113.338h-263.958Z" style="fill:#fff;"/><path d="M1674.026,727.423c-16.404,0-32.808-4.474-47.721-11.93-14.913-7.456-28.334-19.387-37.282-34.3-10.439-14.913-14.913-32.808-14.913-55.178,0-28.334,7.456-52.195,23.861-70.09,14.913-17.895,35.791-37.282,61.143-58.16,17.895-13.422,35.791-25.352,52.195-38.773,17.895-13.422,34.3-26.843,52.195-40.265-11.93-10.439-28.334-23.861-47.721-40.265-19.387-16.404-38.773-32.808-58.16-49.212-25.352-20.878-46.23-41.756-61.143-61.143-14.913-19.387-22.369-43.247-22.369-74.564,0-20.878,5.965-38.773,14.913-55.178,10.439-14.913,22.369-26.843,37.282-34.3,14.913-7.456,31.317-11.93,47.721-11.93s37.282,4.474,50.704,11.93c13.422,8.948,25.352,19.387,35.791,32.808,10.439,13.422,20.878,29.826,29.826,47.721,14.913,28.334,26.843,55.178,37.282,79.038,10.439,23.861,19.387,41.756,23.861,55.178,4.474-13.422,13.422-31.317,23.861-55.178,10.439-23.861,23.861-50.704,37.282-79.038,8.948-17.895,19.387-34.3,29.826-47.721,10.439-13.422,22.369-25.352,35.791-32.808,16.404-7.456,32.808-11.93,52.195-11.93s32.808,4.474,49.212,11.93c14.913,7.456,28.334,19.387,37.282,35.791,10.439,14.913,14.913,32.808,14.913,55.178,0,31.317-7.456,55.178-22.369,74.564-14.913,19.387-35.791,40.265-61.143,61.143-17.895,14.913-34.3,29.826-52.195,44.739-17.895,14.913-34.3,29.826-52.195,43.247,11.93,8.948,28.334,20.878,46.23,34.3,17.895,14.913,37.282,29.826,55.178,44.739,25.352,20.878,46.23,40.265,61.143,58.16,14.913,17.895,23.861,41.756,23.861,70.09s-4.474,38.773-14.913,55.178c-10.439,14.913-22.369,26.843-37.282,34.3-14.913,7.456-31.317,11.93-49.212,11.93-19.387,0-37.282-4.474-50.704-13.422-13.422-7.456-25.352-19.387-35.791-32.808-10.439-14.913-20.878-29.826-29.826-47.721-13.422-25.352-25.352-49.212-35.791-70.09-11.93-20.878-19.387-40.265-25.352-55.178-4.474,14.913-13.422,34.3-25.352,55.178-11.93,22.369-23.861,44.739-35.791,68.599-14.913,26.843-29.826,49.212-46.23,67.108-16.404,17.895-40.265,26.843-70.09,26.843h0v1.491h0Z" style="fill:#fff;"/><rect x="2247.011" y="94.372" width="3206.998" height="630.814" style="fill:#fff;"/><path d="M2677.631,483.435c0,111.704-73.306,182.915-173.84,182.915s-172.442-71.211-172.442-173.141v-38.399h114.496v38.399c0,34.209,16.058,60.04,57.946,60.04,39.097,0,58.645-21.643,58.645-64.229V165.077h115.195v318.357Z"/><path d="M2957.584,153.209c127.762,0,186.406,85.873,186.406,256.919s-57.248,256.222-185.01,256.222-188.5-86.57-188.5-256.919c0-161.273,62.135-256.222,187.104-256.222ZM2957.584,553.249c57.947,0,70.514-45.379,70.514-143.819-.698-99.836-11.171-140.329-69.117-143.121-55.852,0-72.607,43.983-72.607,143.819s15.359,143.121,71.211,143.121Z"/><path d="M3570.556,165.077v323.942c0,117.289-77.494,177.33-173.142,177.33-94.948,0-173.141-60.041-173.141-177.33V165.077h115.194v319.754c0,48.172,23.737,70.513,57.946,70.513,35.606,0,58.646-22.341,58.646-70.513V165.077h114.496Z"/><path d="M3902.173,653.784l-83.08-182.915h-40.493v182.915h-114.496V165.077h180.82c107.516,0,161.972,73.306,161.972,147.31,0,53.059-29.322,102.628-77.495,127.762l103.326,213.634h-130.554ZM3842.132,273.989h-63.532v88.665h55.853c37.002,0,57.946-20.246,57.946-46.078,0-24.436-16.058-42.587-50.267-42.587Z"/><path d="M4450.216,653.784h-114.496l-118.686-274.374v274.374h-113.101V165.077h117.987l114.496,271.581V165.077h113.799v488.706Z"/><path d="M4543.764,653.784V165.077h346.282v108.912h-231.786v77.495h207.351v110.309h-207.351v82.382h244.354v109.609h-358.85Z"/><path d="M5213.983,468.774v185.01h-114.497v-185.01l-155.688-303.696h131.95l82.382,191.992,80.985-191.992h130.555l-155.688,303.696Z"/></svg>