<?xml version="1.0" encoding="UTF-8"?>
<svg id="Layer_1" data-name="Layer 1" xmlns="http://www.w3.org/2000/svg" viewBox="0 0 44.5 42.3">
  <path d="M7.535,40.185c-1.35,0-2.43-.27-3.24-.81-.81-.54-1.35-1.26-1.62-2.07s-.45-1.71-.45-2.7V10.035c0-2.61.63-4.68,1.98-5.94,1.35-1.35,3.33-1.98,6.12-1.98s3.33.18,4.32.63c1.08.45,1.89,1.17,2.52,2.07.63.99,1.08,2.16,1.53,3.69l.27,1.08c.63,1.98,1.08,3.6,1.44,5.04.36,1.44.63,2.7.9,3.96.27,1.17.45,2.34.54,3.51.18,1.17.27,2.34.36,3.69.09-1.35.27-2.61.36-3.69s.36-2.34.54-3.51c.27-1.17.54-2.52.9-3.96.36-1.44.9-3.15,1.44-5.04l.27-1.08c.45-1.53.99-2.7,1.62-3.69.63-.99,1.44-1.62,2.52-2.07,1.08-.45,2.52-.63,4.32-.63,2.79,0,4.86.63,6.12,1.98,1.26,1.35,1.98,3.33,1.98,5.94v24.48c0,.9-.18,1.8-.45,2.7s-.81,1.53-1.62,2.07-1.89.81-3.24.81-2.43-.27-3.24-.81c-.81-.54-1.35-1.26-1.62-2.07s-.45-1.71-.45-2.7v-4.41c0-2.43.18-5.13.36-8.1.18-2.97.36-6.48.45-10.35l-4.68,17.46c-.36,1.17-.72,2.16-1.17,2.88-.36.72-.9,1.26-1.62,1.62-.63.36-1.62.54-2.88.54s-2.25-.18-2.88-.54c-.72-.36-1.26-.9-1.62-1.62-.36-.72-.81-1.71-1.17-2.88l-4.68-17.46c.09,3.87.27,7.38.45,10.35s.27,5.76.36,8.1v4.41c0,.9-.09,1.8-.36,2.7s-.81,1.53-1.62,2.07c-.81.54-1.89.81-3.24.81h0l.18.09Z" style="fill: #ed2224;"/>
</svg>